<?xml version="1.0" encoding="utf-8"?>
<!-- Generator: Adobe Illustrator 16.0.0, SVG Export Plug-In . SVG Version: 6.00 Build 0)  -->
<!DOCTYPE svg PUBLIC "-//W3C//DTD SVG 1.1//EN" "http://www.w3.org/Graphics/SVG/1.1/DTD/svg11.dtd">
<svg version="1.1" xmlns="http://www.w3.org/2000/svg" xmlns:xlink="http://www.w3.org/1999/xlink" x="0px" y="0px" width="800px"
	 height="800px" viewBox="0 0 800 800" enable-background="new 0 0 800 800" xml:space="preserve">
<g id="Background">
	<g>
		<image overflow="visible" width="3334" height="3334" xlink:href="54AD2038.png"  transform="matrix(0.24 0 0 0.24 0 0)">
		</image>
	</g>
</g>
<g id="Objects">
	<g>
		<text transform="matrix(1 0 0 1 217.8804 62.6797)" fill="#F2BB62" font-family="'Antonio-Regular'" font-size="46.4802">HAPPY NEW YEAR</text>
		<g>
			<path fill="none" stroke="#FFFFFF" stroke-width="2" stroke-miterlimit="10" d="M450.324,497.101
				c-0.239-33.437-2.405-67.836-5.291-84.193c-2.888-16.357-17.08-70.001-21.409-92.132c-4.33-22.131-4.09-54.606-4.09-54.606
				c5.773-1.925-2.888-21.169-2.888-21.169h-14.913h-0.242h-14.912c0,0-8.66,19.244-2.887,21.169c0,0,0.24,32.475-4.089,54.606
				c-4.331,22.131-18.523,75.775-21.41,92.132s-5.051,50.757-5.292,84.193c-0.133,18.471-0.838,36.931-1.22,55.396
				c-0.165,7.932-0.319,15.872-0.181,23.807c0.071,4.086-0.327,9.065,1.07,12.996c2.962,8.319,14.225,9.11,21.499,9.315
				c7.055,0.199,17.596,0.233,27.543,0.205c9.946,0.028,20.487-0.006,27.543-0.205c5.479-0.153,11.817-0.054,16.7-2.927
				c6.183-3.638,5.525-11.617,5.867-17.797c0.455-8.18,0.003-16.376-0.161-24.557C451.182,534.59,450.461,515.852,450.324,497.101z"
				/>
			
				<line fill="none" stroke="#FFFFFF" stroke-width="2" stroke-miterlimit="10" x1="157.659" y1="613.653" x2="642.341" y2="613.653"/>
			<g>
				<g>
					<path fill="none" stroke="#FFFFFF" stroke-width="2" stroke-miterlimit="10" d="M266.142,589.307
						c-10.081-8.341-7.172-22.305-7.213-33.872c-0.038-10.44,0.29-20.873,0.537-31.312c0.075-3.211-0.026-6.771,0.774-9.916
						c0.561-2.197,1.988-3.966,3.484-5.607c3.321-3.65,6.011-7.521,8.228-11.924c3.155-6.254,5.514-12.894,7.387-19.637
						c4.109-14.803,5.979-30.199,6.855-45.506c0.744-12.993,0.725-26.031,0.108-39.028c-0.263-5.523-0.58-11.063-1.179-16.562
						h-60.298c-0.598,5.499-0.917,11.039-1.178,16.562c-0.617,12.997-0.636,26.035,0.108,39.026
						c0.875,15.309,2.745,30.705,6.855,45.508c1.872,6.743,4.23,13.383,7.384,19.637c2.222,4.402,4.909,8.273,8.231,11.924
						c1.494,1.642,2.922,3.41,3.48,5.607c0.801,3.146,0.701,6.705,0.779,9.916c0.248,10.438,0.574,20.871,0.536,31.312
						c-0.042,11.567,2.867,25.531-7.216,33.872c-4.396,3.639-12.135,8.574-22.189,9.38v0.061l33.356-0.058l32.715,0.055v-0.135
						C277.956,597.647,270.444,592.866,266.142,589.307z"/>
				</g>
<!--
				<g>
					<circle fill="#F2BB62" cx="249.33" cy="492.428" r="6.083"/>
					<circle fill="#F2BB62" cx="264.121" cy="473.166" r="6.083"/>
					<circle fill="#F2BB62" cx="243.247" cy="463.002" r="6.083"/>
					<circle fill="#F2BB62" cx="268.498" cy="447.335" r="4.924"/>
					<circle fill="#F2BB62" cx="241.373" cy="423.545" r="6.083"/>
					<circle fill="#F2BB62" cx="275.83" cy="413.335" r="6.083"/>
					<circle fill="#F2BB62" cx="244.95" cy="397.794" r="4.891"/>
					<circle fill="#F2BB62" cx="265.081" cy="402.004" r="7.158"/>
					<circle fill="#F2BB62" cx="250.039" cy="411.047" r="7.294"/>
					<circle fill="#F2BB62" cx="258.163" cy="459.085" r="7.335"/>
					<circle fill="#F2BB62" cx="249.33" cy="477.084" r="6.309"/>
					<circle fill="#F2BB62" cx="272.081" cy="461.669" r="4.75"/>
					<circle fill="#F2BB62" cx="236.29" cy="471.833" r="3.709"/>
					<circle fill="#F2BB62" cx="266.856" cy="488.991" r="5.199"/>
					<circle fill="#F2BB62" cx="251.704" cy="503.22" r="3.709"/>
					<circle fill="#F2BB62" cx="246.497" cy="452.499" r="3.709"/>
					<circle fill="#F2BB62" cx="263.622" cy="416.085" r="4.081"/>
					<circle fill="#F2BB62" cx="255.118" cy="394.11" r="3.684"/>
					<circle fill="#F2BB62" cx="236.29" cy="412.291" r="3.662"/>
					<circle fill="#F2BB62" cx="236.655" cy="450.244" r="5.039"/>
					<circle fill="#F2BB62" cx="243.62" cy="438.625" r="5.933"/>
					<circle fill="#F2BB62" cx="270.952" cy="427.458" r="5.585"/>
					<circle fill="#F2BB62" cx="275.83" cy="437.797" r="4.165"/>
					<circle fill="#F2BB62" cx="278.441" cy="447.335" r="2.909"/>
					<circle fill="#F2BB62" cx="263.947" cy="498.511" r="2.909"/>
					<circle fill="#F2BB62" cx="280.587" cy="422.461" r="2.909"/>
					<circle fill="#F2BB62" cx="254.191" cy="447.335" r="2.909"/>
					<circle fill="#F2BB62" cx="266.162" cy="437.625" r="2.325"/>
					<circle fill="#F2BB62" cx="281.35" cy="431.336" r="2.909"/>
					<circle fill="#F2BB62" cx="278.303" cy="395.766" r="5.347"/>
					<circle fill="#F2BB62" cx="257.513" cy="437.625" r="5.348"/>
					<circle fill="#F2BB62" cx="235.29" cy="458.76" r="1.874"/>
					<circle fill="#F2BB62" cx="241.373" cy="486.082" r="2.909"/>
					<circle fill="#F2BB62" cx="233.76" cy="441.252" r="2.909"/>
					<circle fill="#F2BB62" cx="234.331" cy="464.994" r="1.992"/>
					<circle fill="#F2BB62" cx="240.414" cy="492.428" r="1.182"/>
					<circle fill="#F2BB62" cx="248.54" cy="430.6" r="1.084"/>
					<circle fill="#F2BB62" cx="261.679" cy="430.6" r="1.084"/>
					<circle fill="#F2BB62" cx="248.54" cy="392.189" r="1.084"/>
					<circle fill="#F2BB62" cx="229.671" cy="447.335" r="1.084"/>
					<circle fill="#F2BB62" cx="250.95" cy="466.986" r="1.084"/>
					<circle fill="#F2BB62" cx="268.498" cy="455.851" r="1.084"/>
					<circle fill="#F2BB62" cx="246.034" cy="447.335" r="1.084"/>
					<circle fill="#F2BB62" cx="228.587" cy="438.625" r="1.084"/>
					<circle fill="#F2BB62" cx="259.349" cy="504.304" r="1.839"/>
					<circle fill="#F2BB62" cx="237.164" cy="479.298" r="2.508"/>
					<circle fill="#F2BB62" cx="266.162" cy="464.994" r="1.084"/>
					<circle fill="#F2BB62" cx="279.514" cy="460.585" r="1.836"/>
					<circle fill="#F2BB62" cx="255.528" cy="469.085" r="1.849"/>
					<circle fill="#F2BB62" cx="246.033" cy="485.617" r="0.463"/>
					<circle fill="#F2BB62" cx="240.414" cy="474.03" r="0.463"/>
					<circle fill="#F2BB62" cx="233.297" cy="424.629" r="0.463"/>
					<circle fill="#F2BB62" cx="254.654" cy="402.002" r="1.101"/>
					<circle fill="#F2BB62" cx="275.366" cy="404.215" r="1.204"/>
					<circle fill="#F2BB62" cx="283.207" cy="391.104" r="0.463"/>
					<circle fill="#F2BB62" cx="269.747" cy="392.651" r="1.258"/>
					<circle fill="#F2BB62" cx="283.828" cy="426.396" r="0.463"/>
					<circle fill="#F2BB62" cx="282.828" cy="437.796" r="0.463"/>
					<circle fill="#F2BB62" cx="281.744" cy="451.499" r="0.463"/>
					<circle fill="#F2BB62" cx="251.246" cy="433.36" r="0.463"/>
					<circle fill="#F2BB62" cx="238.615" cy="431.336" r="0.463"/>
					<circle fill="#F2BB62" cx="225.928" cy="425.932" r="0.463"/>
					<path fill="#F2BB62" d="M230.607,412.287c0,1.116-0.903,2.022-2.019,2.022c-1.113,0-2.021-0.906-2.021-2.022
						c0-1.113,0.907-2.016,2.021-2.016C229.705,410.271,230.607,411.174,230.607,412.287z"/>
					<circle fill="#F2BB62" cx="240.414" cy="406.902" r="0.924"/>
					<circle fill="#F2BB62" cx="237.687" cy="393.87" r="0.924"/>
					<circle fill="#F2BB62" cx="227.458" cy="394.793" r="1.53"/>
					<circle fill="#F2BB62" cx="231.25" cy="460.584" r="0.463"/>
					<circle fill="#F2BB62" cx="259.35" cy="449.253" r="0.463"/>
					<circle fill="#F2BB62" cx="271.484" cy="474.03" r="0.463"/>
					<circle fill="#F2BB62" cx="255.117" cy="485.617" r="0.463"/>
					<circle fill="#F2BB62" cx="260.018" cy="494.889" r="0.463"/>
					<circle fill="#F2BB62" cx="253.68" cy="498.51" r="0.463"/>
					<circle fill="#F2BB62" cx="242.04" cy="470.933" r="0.858"/>
					<circle fill="#F2BB62" cx="246.033" cy="500.387" r="0.858"/>
					<circle fill="#F2BB62" cx="278.282" cy="455.07" r="3.097"/>
					<circle fill="#F2BB62" cx="274.581" cy="470.934" r="3.097"/>
					<circle fill="#F2BB62" cx="259.349" cy="481.805" r="2.453"/>
					<circle fill="#F2BB62" cx="257.329" cy="498.51" r="2.02"/>
					<circle fill="#F2BB62" cx="258.163" cy="491.011" r="2.02"/>
					<circle fill="#F2BB62" cx="272.081" cy="481.805" r="2.02"/>
					<circle fill="#F2BB62" cx="262.415" cy="423.545" r="1.084"/>
					<circle fill="#F2BB62" cx="263.499" cy="392.189" r="1.798"/>
					<circle fill="#F2BB62" cx="281.744" cy="442.874" r="1.084"/>
					<circle fill="#F2BB62" cx="282.744" cy="407.252" r="1.909"/>
					<circle fill="#F2BB62" cx="232.833" cy="401.085" r="5.885"/>
					<circle fill="#F2BB62" cx="230.755" cy="420.914" r="2.779"/>
					<circle fill="#F2BB62" cx="231.292" cy="431.295" r="4.301"/>
					<circle fill="#F2BB62" cx="254.654" cy="425.236" r="5.363"/>
				</g>
-->
			</g>
			<g>
				<g>
					<path fill="none" stroke="#FFFFFF" stroke-width="2" stroke-miterlimit="10" d="M557.653,589.307
						c-10.081-8.341-7.172-22.305-7.213-33.872c-0.038-10.44,0.29-20.873,0.537-31.312c0.075-3.211-0.026-6.771,0.774-9.916
						c0.561-2.197,1.988-3.966,3.484-5.607c3.321-3.65,6.011-7.521,8.228-11.924c3.155-6.254,5.514-12.894,7.387-19.637
						c4.109-14.803,5.979-30.199,6.855-45.506c0.744-12.993,0.725-26.031,0.108-39.028c-0.263-5.523-0.58-11.063-1.179-16.562
						h-60.298c-0.598,5.499-0.917,11.039-1.178,16.562c-0.617,12.997-0.636,26.035,0.108,39.026
						c0.875,15.309,2.745,30.705,6.855,45.508c1.872,6.743,4.23,13.383,7.384,19.637c2.222,4.402,4.909,8.273,8.231,11.924
						c1.494,1.642,2.922,3.41,3.48,5.607c0.801,3.146,0.701,6.705,0.779,9.916c0.248,10.438,0.574,20.871,0.536,31.312
						c-0.042,11.567,2.867,25.531-7.216,33.872c-4.396,3.639-12.135,8.574-22.189,9.38v0.061l33.356-0.058l32.715,0.055v-0.135
						C569.467,597.647,561.955,592.866,557.653,589.307z"/>
				</g>
				<g>
					<circle fill="#F2BB62" cx="540.841" cy="493.428" r="6.083"/>
					<circle fill="#F2BB62" cx="555.632" cy="474.166" r="6.083"/>
					<circle fill="#F2BB62" cx="534.758" cy="464.002" r="6.083"/>
					<circle fill="#F2BB62" cx="560.009" cy="448.335" r="4.924"/>
					<circle fill="#F2BB62" cx="532.884" cy="424.545" r="6.083"/>
					<circle fill="#F2BB62" cx="567.341" cy="414.335" r="6.083"/>
					<circle fill="#F2BB62" cx="536.461" cy="398.794" r="4.891"/>
					<circle fill="#F2BB62" cx="556.592" cy="403.004" r="7.158"/>
					<circle fill="#F2BB62" cx="541.55" cy="412.047" r="7.294"/>
					<circle fill="#F2BB62" cx="549.674" cy="460.085" r="7.335"/>
					<circle fill="#F2BB62" cx="540.841" cy="478.084" r="6.309"/>
					<circle fill="#F2BB62" cx="563.592" cy="462.669" r="4.75"/>
					<circle fill="#F2BB62" cx="527.801" cy="472.833" r="3.709"/>
					<circle fill="#F2BB62" cx="558.367" cy="489.991" r="5.199"/>
					<circle fill="#F2BB62" cx="543.215" cy="504.22" r="3.709"/>
					<circle fill="#F2BB62" cx="538.008" cy="453.499" r="3.709"/>
					<circle fill="#F2BB62" cx="555.133" cy="417.085" r="4.081"/>
					<circle fill="#F2BB62" cx="546.629" cy="395.11" r="3.684"/>
					<circle fill="#F2BB62" cx="527.801" cy="413.291" r="3.662"/>
					<circle fill="#F2BB62" cx="528.166" cy="451.244" r="5.039"/>
					<circle fill="#F2BB62" cx="535.131" cy="439.625" r="5.933"/>
					<circle fill="#F2BB62" cx="562.463" cy="428.458" r="5.585"/>
					<circle fill="#F2BB62" cx="567.341" cy="438.797" r="4.165"/>
					<circle fill="#F2BB62" cx="569.952" cy="448.335" r="2.909"/>
					<circle fill="#F2BB62" cx="555.458" cy="499.511" r="2.909"/>
					<circle fill="#F2BB62" cx="572.099" cy="423.461" r="2.909"/>
					<circle fill="#F2BB62" cx="545.702" cy="448.335" r="2.909"/>
					<circle fill="#F2BB62" cx="557.673" cy="438.625" r="2.325"/>
					<circle fill="#F2BB62" cx="572.861" cy="432.336" r="2.909"/>
					<circle fill="#F2BB62" cx="569.814" cy="396.766" r="5.347"/>
					<circle fill="#F2BB62" cx="549.024" cy="438.625" r="5.348"/>
					<circle fill="#F2BB62" cx="526.801" cy="459.76" r="1.874"/>
					<circle fill="#F2BB62" cx="532.884" cy="487.082" r="2.909"/>
					<circle fill="#F2BB62" cx="525.271" cy="442.252" r="2.909"/>
					<circle fill="#F2BB62" cx="525.842" cy="465.994" r="1.992"/>
					<circle fill="#F2BB62" cx="531.925" cy="493.428" r="1.182"/>
					<circle fill="#F2BB62" cx="540.051" cy="431.6" r="1.084"/>
					<circle fill="#F2BB62" cx="553.19" cy="431.6" r="1.084"/>
					<circle fill="#F2BB62" cx="540.051" cy="393.189" r="1.084"/>
					<circle fill="#F2BB62" cx="521.183" cy="448.335" r="1.084"/>
					<circle fill="#F2BB62" cx="542.461" cy="467.986" r="1.084"/>
					<circle fill="#F2BB62" cx="560.009" cy="456.851" r="1.084"/>
					<circle fill="#F2BB62" cx="537.545" cy="448.335" r="1.084"/>
					<circle fill="#F2BB62" cx="520.099" cy="439.625" r="1.084"/>
					<circle fill="#F2BB62" cx="550.86" cy="505.304" r="1.839"/>
					<circle fill="#F2BB62" cx="528.675" cy="480.298" r="2.508"/>
					<circle fill="#F2BB62" cx="557.673" cy="465.994" r="1.084"/>
					<circle fill="#F2BB62" cx="571.025" cy="461.585" r="1.836"/>
					<circle fill="#F2BB62" cx="547.04" cy="470.085" r="1.849"/>
					<circle fill="#F2BB62" cx="537.544" cy="486.617" r="0.463"/>
					<circle fill="#F2BB62" cx="531.925" cy="475.03" r="0.463"/>
					<circle fill="#F2BB62" cx="524.808" cy="425.629" r="0.463"/>
					<circle fill="#F2BB62" cx="546.165" cy="403.002" r="1.101"/>
					<circle fill="#F2BB62" cx="566.878" cy="405.215" r="1.204"/>
					<circle fill="#F2BB62" cx="574.718" cy="392.104" r="0.463"/>
					<circle fill="#F2BB62" cx="561.258" cy="393.651" r="1.258"/>
					<circle fill="#F2BB62" cx="575.339" cy="427.396" r="0.463"/>
					<circle fill="#F2BB62" cx="574.339" cy="438.796" r="0.463"/>
					<circle fill="#F2BB62" cx="573.255" cy="452.499" r="0.463"/>
					<circle fill="#F2BB62" cx="542.757" cy="434.36" r="0.463"/>
					<circle fill="#F2BB62" cx="530.126" cy="432.336" r="0.463"/>
					<circle fill="#F2BB62" cx="517.439" cy="426.932" r="0.463"/>
					<path fill="#F2BB62" d="M522.119,413.287c0,1.116-0.903,2.022-2.02,2.022c-1.113,0-2.02-0.906-2.02-2.022
						c0-1.113,0.906-2.016,2.02-2.016C521.216,411.271,522.119,412.174,522.119,413.287z"/>
					<circle fill="#F2BB62" cx="531.926" cy="407.902" r="0.924"/>
					<circle fill="#F2BB62" cx="529.198" cy="394.87" r="0.924"/>
					<circle fill="#F2BB62" cx="518.97" cy="395.793" r="1.53"/>
					<circle fill="#F2BB62" cx="522.761" cy="461.584" r="0.463"/>
					<circle fill="#F2BB62" cx="550.861" cy="450.253" r="0.463"/>
					<circle fill="#F2BB62" cx="562.996" cy="475.03" r="0.463"/>
					<circle fill="#F2BB62" cx="546.628" cy="486.617" r="0.463"/>
					<circle fill="#F2BB62" cx="551.529" cy="495.889" r="0.463"/>
					<circle fill="#F2BB62" cx="545.191" cy="499.51" r="0.463"/>
					<circle fill="#F2BB62" cx="533.551" cy="471.933" r="0.858"/>
					<circle fill="#F2BB62" cx="537.544" cy="501.387" r="0.858"/>
					<circle fill="#F2BB62" cx="569.793" cy="456.07" r="3.097"/>
					<circle fill="#F2BB62" cx="566.092" cy="471.934" r="3.097"/>
					<circle fill="#F2BB62" cx="550.86" cy="482.805" r="2.453"/>
					<circle fill="#F2BB62" cx="548.84" cy="499.51" r="2.02"/>
					<circle fill="#F2BB62" cx="549.674" cy="492.011" r="2.02"/>
					<circle fill="#F2BB62" cx="563.592" cy="482.805" r="2.02"/>
					<circle fill="#F2BB62" cx="553.926" cy="424.545" r="1.084"/>
					<circle fill="#F2BB62" cx="555.01" cy="393.189" r="1.799"/>
					<circle fill="#F2BB62" cx="573.255" cy="443.874" r="1.084"/>
					<circle fill="#F2BB62" cx="574.255" cy="408.252" r="1.909"/>
					<circle fill="#F2BB62" cx="524.345" cy="402.085" r="5.885"/>
					<circle fill="#F2BB62" cx="522.267" cy="421.914" r="2.779"/>
					<circle fill="#F2BB62" cx="522.803" cy="432.295" r="4.301"/>
					<circle fill="#F2BB62" cx="546.165" cy="426.236" r="5.363"/>
				</g>
			</g>
		</g>
	</g>
</g>
<g id="Calque_3">
	<path fill="#F2BB62" d="M403.063,384.436c0-6.918,5.606-12.524,12.524-12.524s12.529,5.606,12.529,12.524
		s-5.611,12.529-12.529,12.529S403.063,391.354,403.063,384.436z"/>
	<path fill="#F2BB62" d="M372.605,425.785c0-5.987,4.853-10.841,10.84-10.841c5.988,0,10.845,4.854,10.845,10.841
		c0,5.988-4.857,10.844-10.845,10.844C377.458,436.629,372.605,431.773,372.605,425.785z"/>
	<circle fill="#F2BB62" cx="425.52" cy="447.627" r="9.932"/>
	<circle fill="#F2BB62" cx="378.694" cy="477.79" r="10.14"/>
	<circle fill="#F2BB62" cx="427.347" cy="543.399" r="9.356"/>
	<circle fill="#F2BB62" cx="363.589" cy="545.903" r="10.177"/>
	<path fill="#F2BB62" d="M414.538,579.314c0-5.563,4.509-10.071,10.071-10.071c5.56,0,10.072,4.509,10.072,10.071
		c0,5.561-4.513,10.068-10.072,10.068C419.047,589.383,414.538,584.875,414.538,579.314z"/>
	<path fill="#F2BB62" d="M371.948,574.125c0-5.032,4.077-9.109,9.112-9.109c5.03,0,9.113,4.077,9.113,9.109
		c0,5.034-4.083,9.114-9.113,9.114C376.025,583.239,371.948,579.159,371.948,574.125z"/>
	<circle fill="#F2BB62" cx="395.096" cy="556.828" r="7.878"/>
	<circle fill="#F2BB62" cx="393.802" cy="456.696" r="11.508"/>
	<path fill="#F2BB62" d="M398.443,430.462c0-6.244,5.062-11.301,11.305-11.301c6.244,0,11.305,5.057,11.305,11.301
		c0,6.243-5.061,11.304-11.305,11.304C403.505,441.766,398.443,436.705,398.443,430.462z"/>
	<circle fill="#F2BB62" cx="368.74" cy="447.778" r="9.781"/>
	<path fill="#F2BB62" d="M424.731,400c0-4.219,3.418-7.638,7.638-7.638c4.215,0,7.638,3.419,7.638,7.638
		c0,4.215-3.423,7.638-7.638,7.638C428.149,407.638,424.731,404.215,424.731,400z"/>
	<path fill="#F2BB62" d="M368.792,391.515c0-5.913,4.794-10.707,10.707-10.707c5.909,0,10.707,4.794,10.707,10.707
		c0,5.908-4.798,10.706-10.707,10.706C373.586,402.221,368.792,397.423,368.792,391.515z"/>
	<path fill="#F2BB62" d="M403.063,362.214c0-4.219,3.419-7.638,7.638-7.638c4.215,0,7.638,3.419,7.638,7.638
		c0,4.215-3.423,7.638-7.638,7.638C406.482,369.852,403.063,366.429,403.063,362.214z"/>
	<path fill="#F2BB62" d="M374.376,356.193c0-4.219,3.419-7.638,7.638-7.638c4.215,0,7.638,3.419,7.638,7.638
		c0,4.215-3.423,7.638-7.638,7.638C377.795,363.832,374.376,360.409,374.376,356.193z"/>
	<path fill="#F2BB62" d="M413.786,466.662c0-4.22,3.419-7.639,7.638-7.639c4.215,0,7.639,3.419,7.639,7.639
		c0,4.215-3.424,7.638-7.639,7.638C417.205,474.3,413.786,470.877,413.786,466.662z"/>
	<path fill="#F2BB62" d="M377.753,541.648c0-4.642,3.765-8.406,8.406-8.406c4.638,0,8.401,3.765,8.401,8.406
		c0,4.637-3.764,8.401-8.401,8.401C381.518,550.05,377.753,546.285,377.753,541.648z"/>
	<path fill="#F2BB62" d="M396.083,586.899c0-4.19,3.398-7.585,7.588-7.585c4.187,0,7.585,3.395,7.585,7.585
		c0,4.188-3.398,7.586-7.585,7.586C399.481,594.485,396.083,591.087,396.083,586.899z"/>
	<path fill="#F2BB62" d="M408.127,559.838c0-4.163,3.379-7.541,7.542-7.541c4.162,0,7.541,3.378,7.541,7.541
		c0,4.162-3.379,7.541-7.541,7.541C411.506,567.379,408.127,564,408.127,559.838z"/>
	<path fill="#F2BB62" d="M431.016,484.393c0-4.284,3.476-7.765,7.763-7.765c4.285,0,7.765,3.48,7.765,7.765
		c0,4.288-3.479,7.764-7.765,7.764C434.491,492.156,431.016,488.681,431.016,484.393z"/>
	<circle fill="#F2BB62" cx="424.783" cy="497.795" r="9.653"/>
	<path fill="#F2BB62" d="M359.562,520.8c0-4.931,4-8.931,8.93-8.931s8.927,4,8.927,8.931s-3.997,8.927-8.927,8.927
		S359.562,525.73,359.562,520.8z"/>
	<path fill="#F2BB62" d="M357.399,495.98c0-4.734,3.841-8.575,8.575-8.575c4.738,0,8.579,3.841,8.579,8.575
		c0,4.738-3.841,8.579-8.579,8.579C361.241,504.56,357.399,500.719,357.399,495.98z"/>
	<path fill="#F2BB62" d="M355.982,467.238c0-3.311,2.683-5.993,5.989-5.993c3.31,0,5.993,2.683,5.993,5.993
		c0,3.306-2.683,5.989-5.993,5.989C358.665,473.228,355.982,470.544,355.982,467.238z"/>
	<path fill="#F2BB62" d="M379.499,371.911c0-3.31,2.683-5.993,5.989-5.993c3.311,0,5.993,2.683,5.993,5.993
		c0,3.306-2.683,5.989-5.993,5.989C382.181,377.9,379.499,375.217,379.499,371.911z"/>
	<path fill="#F2BB62" d="M388.542,324.349c0-3.31,2.683-5.993,5.989-5.993c3.311,0,5.993,2.683,5.993,5.993
		c0,3.306-2.683,5.989-5.993,5.989C391.225,330.337,388.542,327.655,388.542,324.349z"/>
	<circle fill="#F2BB62" cx="377.418" cy="556.828" r="5.991"/>
	<path fill="#F2BB62" d="M399.589,477.296c0-3.311,2.683-5.993,5.988-5.993c3.311,0,5.993,2.683,5.993,5.993
		c0,3.306-2.683,5.989-5.993,5.989C402.271,483.285,399.589,480.602,399.589,477.296z"/>
	<path fill="#F2BB62" d="M398.205,336.346c0-3.311,2.683-5.993,5.988-5.993c3.311,0,5.993,2.683,5.993,5.993
		c0,3.306-2.683,5.989-5.993,5.989C400.888,342.335,398.205,339.651,398.205,336.346z"/>
	<path fill="#F2BB62" d="M384.214,308.206c0-3.311,2.683-5.993,5.988-5.993c3.311,0,5.993,2.683,5.993,5.993
		c0,3.306-2.683,5.989-5.993,5.989C386.897,314.195,384.214,311.511,384.214,308.206z"/>
	<path fill="#F2BB62" d="M406.068,297.161c0-3.311,2.682-5.993,5.988-5.993c3.311,0,5.992,2.683,5.992,5.993
		c0,3.306-2.682,5.989-5.992,5.989C408.75,303.15,406.068,300.467,406.068,297.161z"/>
	<path fill="#F2BB62" d="M376.14,497.289c0-2.643,2.144-4.786,4.786-4.786c2.647,0,4.791,2.144,4.791,4.786
		c0,2.646-2.144,4.79-4.791,4.79C378.284,502.079,376.14,499.936,376.14,497.289z"/>
	<path fill="#F2BB62" d="M406.067,409.627c0-3.307,2.683-5.989,5.993-5.989c3.306,0,5.988,2.683,5.988,5.989
		c0,3.311-2.683,5.993-5.988,5.993C408.75,415.62,406.067,412.938,406.067,409.627z"/>
	<path fill="#F2BB62" d="M379.499,336.107c0-3.307,2.683-5.989,5.993-5.989c3.306,0,5.988,2.683,5.988,5.989
		c0,3.311-2.683,5.993-5.988,5.993C382.182,342.1,379.499,339.417,379.499,336.107z"/>
	<path fill="#F2BB62" d="M360.942,411.045c0-3.307,2.683-5.989,5.993-5.989c3.306,0,5.988,2.683,5.988,5.989
		c0,3.311-2.683,5.993-5.988,5.993C363.625,417.038,360.942,414.355,360.942,411.045z"/>
	<path fill="#F2BB62" d="M406.604,325.298c0-3.307,2.683-5.989,5.993-5.989c3.306,0,5.988,2.683,5.988,5.989
		c0,3.311-2.683,5.993-5.988,5.993C409.287,331.291,406.604,328.608,406.604,325.298z"/>
	<circle fill="#F2BB62" cx="361.306" cy="578.106" r="5.627"/>
	<circle fill="#F2BB62" cx="398.736" cy="497.289" r="11.012"/>
	<circle fill="#F2BB62" cx="441.368" cy="456.901" r="3.859"/>
	<path fill="#F2BB62" d="M419.994,418.46c0-3.306,2.684-5.988,5.989-5.988c3.311,0,5.993,2.683,5.993,5.988
		c0,3.311-2.683,5.993-5.993,5.993C422.678,424.453,419.994,421.771,419.994,418.46z"/>
	<path fill="#F2BB62" d="M436.454,516.23c0-3.306,2.683-5.988,5.992-5.988c3.307,0,5.989,2.683,5.989,5.988
		c0,3.311-2.683,5.993-5.989,5.993C439.137,522.224,436.454,519.541,436.454,516.23z"/>
	<circle fill="#F2BB62" cx="440.007" cy="418.135" r="4.102"/>
	<circle fill="#F2BB62" cx="433.95" cy="384.436" r="2.433"/>
	<circle fill="#F2BB62" cx="365.976" cy="398.46" r="2.433"/>
	<circle fill="#F2BB62" cx="369.013" cy="380.321" r="2.433"/>
	<circle fill="#F2BB62" cx="417.217" cy="511.757" r="2.232"/>
	<circle fill="#F2BB62" cx="390.157" cy="511.757" r="2.232"/>
	<circle fill="#F2BB62" cx="358.958" cy="510.534" r="2.232"/>
	<circle fill="#F2BB62" cx="417.217" cy="590.855" r="2.232"/>
	<circle fill="#F2BB62" cx="436.97" cy="470.935" r="2.232"/>
	<circle fill="#F2BB62" cx="395.096" cy="440.709" r="2.232"/>
	<circle fill="#F2BB62" cx="376.116" cy="459.76" r="2.232"/>
	<circle fill="#F2BB62" cx="422.377" cy="477.296" r="2.232"/>
	<circle fill="#F2BB62" cx="433.949" cy="508.302" r="2.232"/>
	<circle fill="#F2BB62" cx="394.957" cy="359.982" r="3.787"/>
	<circle fill="#F2BB62" cx="393.58" cy="283.081" r="3.787"/>
	<circle fill="#F2BB62" cx="437.015" cy="432.337" r="5.165"/>
	<path fill="#F2BB62" d="M378.694,440.929c0-1.23,1.001-2.231,2.232-2.231c1.235,0,2.232,1.001,2.232,2.231
		c0,1.235-0.998,2.232-2.232,2.232C379.696,443.161,378.694,442.164,378.694,440.929z"/>
	<circle fill="#F2BB62" cx="408.127" cy="464.002" r="3.781"/>
	<circle fill="#F2BB62" cx="444.11" cy="502.465" r="3.781"/>
	<circle fill="#F2BB62" cx="411.256" cy="452.977" r="3.807"/>
	<circle fill="#F2BB62" cx="441.467" cy="444.561" r="3.807"/>
	<circle fill="#F2BB62" cx="425.985" cy="356.196" r="3.807"/>
	<circle fill="#F2BB62" cx="420.611" cy="333.927" r="3.807"/>
	<circle fill="#F2BB62" cx="414.984" cy="310.037" r="3.807"/>
	<circle fill="#F2BB62" cx="422.377" cy="398.46" r="0.953"/>
	<circle fill="#F2BB62" cx="433.949" cy="422.323" r="0.953"/>
	<circle fill="#F2BB62" cx="448.605" cy="524.052" r="0.953"/>
	<circle fill="#F2BB62" cx="404.624" cy="570.646" r="2.267"/>
	<path fill="#F2BB62" d="M359.493,566.09c0-1.367,1.108-2.481,2.478-2.481c1.367,0,2.481,1.114,2.481,2.481
		s-1.114,2.478-2.481,2.478C360.601,568.567,359.493,567.457,359.493,566.09z"/>
	<circle fill="#F2BB62" cx="358.958" cy="590.857" r="0.953"/>
	<circle fill="#F2BB62" cx="373.545" cy="589.904" r="2.591"/>
	<circle fill="#F2BB62" cx="381.061" cy="519.461" r="0.953"/>
	<circle fill="#F2BB62" cx="373.884" cy="535.727" r="0.953"/>
	<circle fill="#F2BB62" cx="357.399" cy="530.354" r="0.953"/>
	<circle fill="#F2BB62" cx="376.14" cy="510.535" r="0.953"/>
	<circle fill="#F2BB62" cx="411.643" cy="506.073" r="0.953"/>
	<circle fill="#F2BB62" cx="437.968" cy="496.602" r="0.954"/>
	<circle fill="#F2BB62" cx="446.542" cy="493.031" r="0.954"/>
	<circle fill="#F2BB62" cx="429.063" cy="563.608" r="0.956"/>
	<path fill="#F2BB62" d="M438.285,534.516c0-2.297,1.857-4.163,4.154-4.163c2.293,0,4.163,1.866,4.163,4.163
		c0,2.293-1.87,4.15-4.163,4.15C440.143,538.666,438.285,536.809,438.285,534.516z"/>
	<path fill="#F2BB62" d="M398.104,545.304c0-1.05,0.849-1.902,1.898-1.902c1.054,0,1.906,0.853,1.906,1.902
		c0,1.054-0.853,1.902-1.906,1.902C398.953,547.206,398.104,546.357,398.104,545.304z"/>
	<path fill="#F2BB62" d="M437.662,587.395c0-1.05,0.849-1.902,1.902-1.902c1.05,0,1.902,0.853,1.902,1.902s-0.853,1.898-1.902,1.898
		C438.511,589.293,437.662,588.444,437.662,587.395z"/>
	<path fill="#F2BB62" d="M441.351,582.343c0-1.737,1.407-3.149,3.145-3.149c1.742,0,3.158,1.412,3.158,3.149
		c0,1.741-1.416,3.149-3.158,3.149C442.758,585.492,441.351,584.084,441.351,582.343z"/>
	<circle fill="#F2BB62" cx="399.116" cy="417.462" r="0.954"/>
	<circle fill="#F2BB62" cx="394.955" cy="473.347" r="0.953"/>
	<circle fill="#F2BB62" cx="369.966" cy="422.323" r="0.953"/>
	<circle fill="#F2BB62" cx="403.671" cy="398.46" r="0.953"/>
	<circle fill="#F2BB62" cx="393.58" cy="379.368" r="0.954"/>
	<circle fill="#F2BB62" cx="417.216" cy="289.791" r="0.954"/>
	<circle fill="#F2BB62" cx="386.122" cy="293.952" r="0.954"/>
	<circle fill="#F2BB62" cx="405.31" cy="272.851" r="0.954"/>
	<circle fill="#F2BB62" cx="395.908" cy="277.339" r="0.954"/>
	<circle fill="#F2BB62" cx="384.214" cy="325.3" r="0.954"/>
	<circle fill="#F2BB62" cx="406.631" cy="371.911" r="0.953"/>
	<circle fill="#F2BB62" cx="415.59" cy="268.386" r="0.953"/>
	<path fill="#F2BB62" d="M424.218,430.878c0-0.978,0.792-1.771,1.766-1.771c0.977,0,1.77,0.793,1.77,1.771
		c0,0.974-0.793,1.761-1.77,1.761C425.01,432.639,424.218,431.852,424.218,430.878z"/>
	<circle fill="#F2BB62" cx="422.379" cy="368.046" r="1.768"/>
	<circle fill="#F2BB62" cx="401.56" cy="352.028" r="1.768"/>
	<circle fill="#F2BB62" cx="383.159" cy="319.311" r="1.768"/>
	<circle fill="#F2BB62" cx="400.069" cy="271.899" r="1.768"/>
	<circle fill="#F2BB62" cx="386.936" cy="288.213" r="1.768"/>
	<circle fill="#F2BB62" cx="386.936" cy="299.821" r="1.768"/>
	<circle fill="#F2BB62" cx="413.786" cy="336.346" r="1.768"/>
	<circle fill="#F2BB62" cx="408.127" cy="306.229" r="1.768"/>
	<circle fill="#F2BB62" cx="417.217" cy="346.518" r="6.377"/>
	<circle fill="#F2BB62" cx="363.589" cy="428.697" r="6.377"/>
	<path fill="#F2BB62" d="M389.907,406.312c0-2.787,2.261-5.052,5.048-5.052c2.791,0,5.052,2.265,5.052,5.052
		c0,2.791-2.261,5.052-5.052,5.052C392.168,411.363,389.907,409.103,389.907,406.312z"/>
	<path fill="#F2BB62" d="M394.955,371.911c0-2.296,1.862-4.159,4.159-4.159c2.3,0,4.162,1.862,4.162,4.159
		c0,2.301-1.862,4.159-4.162,4.159C396.817,376.07,394.955,374.212,394.955,371.911z"/>
	<path fill="#F2BB62" d="M369.723,371.909c0-2.296,1.862-4.159,4.159-4.159c2.3,0,4.162,1.862,4.162,4.159
		c0,2.301-1.862,4.159-4.162,4.159C371.585,376.068,369.723,374.21,369.723,371.909z"/>
	<circle fill="#F2BB62" cx="397.398" cy="387.355" r="4.161"/>
	<circle fill="#F2BB62" cx="394.002" cy="346.519" r="4.161"/>
	<circle fill="#F2BB62" cx="405.31" cy="314.197" r="4.161"/>
	<circle fill="#F2BB62" cx="412.596" cy="284.678" r="4.161"/>
	<circle fill="#F2BB62" cx="392.626" cy="293" r="4.161"/>
	<circle fill="#F2BB62" cx="400.069" cy="302.214" r="4.161"/>
	<circle fill="#F2BB62" cx="404.627" cy="279.859" r="3.221"/>
	<circle fill="#F2BB62" cx="391.481" cy="273.667" r="3.221"/>
	<circle fill="#F2BB62" cx="412.595" cy="274.759" r="4.162"/>
	<circle fill="#F2BB62" cx="402.021" cy="288.839" r="4.161"/>
	<circle fill="#F2BB62" cx="378.694" cy="408.826" r="4.161"/>
	<circle fill="#F2BB62" cx="388.645" cy="526.284" r="2.232"/>
	<circle fill="#F2BB62" cx="386.411" cy="590.855" r="3.703"/>
	<circle fill="#F2BB62" cx="413.786" cy="487.436" r="2.232"/>
	<path fill="#F2BB62" d="M404.195,545.9c0-2.172,1.758-3.93,3.93-3.93s3.934,1.758,3.934,3.93s-1.762,3.934-3.934,3.934
		S404.195,548.072,404.195,545.9z"/>
	<circle fill="#F2BB62" cx="442.444" cy="568.567" r="6.66"/>
	<circle fill="#F2BB62" cx="444.502" cy="551.625" r="5.723"/>
	<path fill="#F2BB62" d="M419.261,523.098c0-4.891,3.966-8.856,8.856-8.856c4.887,0,8.853,3.966,8.853,8.856
		c0,4.892-3.966,8.857-8.853,8.857C423.227,531.955,419.261,527.989,419.261,523.098z"/>
	<circle fill="#F2BB62" cx="404.625" cy="522.801" r="11.044"/>
</g>
</svg>
